<svg width="108" height="66" viewBox="0 0 108 66" fill="none" xmlns="http://www.w3.org/2000/svg">
<path d="M62 44C62 40.134 65.134 37 69 37H85C88.866 37 92 40.134 92 44V59C92 62.866 88.866 66 85 66H69C65.134 66 62 62.866 62 59V44Z" fill="#656565"/>
<path d="M77 35C72.582 35 69 31.418 69 27C69 22.582 72.582 19 77 19C81.418 19 85 22.582 85 27C85 31.418 81.418 35 77 35Z" fill="#656565"/>
<path d="M48.1563 29C50.2783 29 52 30.3438 52 32C52 33.6562 50.2783 35 48.1563 35H14.8438C12.7217 35 11 33.6562 11 32C11 30.3438 12.7217 29 14.8438 29H48.1563Z" fill="#656565"/>
<path d="M52 43C52 41.3438 50.2783 40 48.1563 40H14.8438C12.7217 40 11 41.3438 11 43C11 44.6562 12.7217 46 14.8438 46H48.1563C50.2783 46 52 44.6562 52 43Z" fill="#656565"/>
<path d="M48.1563 50C50.2783 50 52 51.3438 52 53C52 54.6562 50.2783 56 48.1563 56H14.8438C12.7217 56 11 54.6562 11 53C11 51.3438 12.7217 50 14.8438 50H48.1563Z" fill="#656565"/>
<path fill-rule="evenodd" clip-rule="evenodd" d="M98.4 0C103.702 0 108 3.582 108 8V58C108 62.418 103.702 66 98.4 66H9.6C4.2984 66 0 62.418 0 58V8C0 3.582 4.2984 0 9.6 0H98.4ZM9.6 6H98.4C99.7266 6 100.8 6.89453 100.8 8V58C100.8 59.1055 99.7266 60 98.4 60H9.6C8.2734 60 7.2 59.1055 7.2 58V8C7.2 6.8945 8.27344 6 9.6 6Z" fill="#656565"/>
</svg>
